# xmcd CD database file
#
# Track frame offsets:
#	150
#	12555
#	23815
#	34327
#	47470
#	58042
#	69580
#	81875
#	93642
#	103975
#	115310
#	126355
#	141925
#	153980
#	166350
#	178290
#	189227
#	201450
#	212290
#	224245
#	234975
#	249317
#	259885
#	273705
#	288410
#	302600
#
# Disc length: 4219 seconds
#
# Revision: 11
# Processed by: cddbd v1.5.2PL0 Copyright (c) Steve Scherf et al.
# Submitted via: CDex 1.70beta2
#
DISCID=8f10791a
DTITLE=T-Bone Walker - The Complete Imperial Recordings, 1950-1954 Disc 1
DYEAR=1991
DGENRE=Blues
TTITLE0=Glamour Girl
TTITLE1=Strollin' With Bone
TTITLE2=The Sun Went Down
TTITLE3=You Don't Love Me
TTITLE4=Travelin' Blues
TTITLE5=The Hustle Is On (78 rpm version)
TTITLE6=Baby Broke My Heart (78 rpm version)
TTITLE7=Evil Hearted Woman (alt. take)
TTITLE8=I Walked Away
TTITLE9=No Reason
TTITLE10=Look Me In The Eye
TTITLE11=Too Lazy (alt. take)
TTITLE12=Alimony Blues
TTITLE13=Life Is Too Short
TTITLE14=You Don't Understand
TTITLE15=Welcome Blues (Say Pretty Baby)
TTITLE16=I Get So Weary
TTITLE17=You Just Wanted To Use Me
TTITLE18=Tell Me What's The Reason
TTITLE19=I'm About To Lose My Mind
TTITLE20=Cold, Cold Feeling
TTITLE21=News For My Baby
TTITLE22=Get These Blues Off Me
TTITLE23=I Got The Blues Again
TTITLE24=Through With Women
TTITLE25=Street Walking Woman
EXTD=YEAR: 1991
EXTT0=
EXTT1=
EXTT2=
EXTT3=
EXTT4=
EXTT5=
EXTT6=
EXTT7=
EXTT8=
EXTT9=
EXTT10=
EXTT11=
EXTT12=
EXTT13=
EXTT14=
EXTT15=
EXTT16=
EXTT17=
EXTT18=
EXTT19=
EXTT20=
EXTT21=
EXTT22=
EXTT23=
EXTT24=
EXTT25=
PLAYORDER=
